<svg width="24" height="24" viewBox="0 0 24 24" fill="none" xmlns="http://www.w3.org/2000/svg">
<circle cx="12" cy="12" r="12" fill="white"/>
<path d="M13.0001 9.8C13.0001 8.95156 12.6626 8.1375 12.0626 7.5376C11.4626 6.9377 10.6485 6.6001 9.8002 6.6001H7.4002C6.7377 6.6001 6.2002 7.1376 6.2002 7.8001V8.4001C6.2002 9.24854 6.5377 10.0626 7.1377 10.6625C7.7377 11.2624 8.55176 11.6 9.4001 11.6H11.4001V13.0344C10.9149 12.75 10.3626 12.6008 9.8001 12.6H8.2001C7.5376 12.6 7.0001 13.1375 7.0001 13.8V14.4C7.0001 15.2484 7.3376 16.0625 7.9376 16.6624C8.5376 17.2623 9.35166 17.5999 10.2 17.5999H11.4V18.5655C11.3914 18.9874 11.7031 19.3476 12.1219 19.3999C12.3477 19.4218 12.5711 19.3476 12.7391 19.1952C12.9062 19.0429 13.0008 18.8265 13 18.5999V15.1999H14.6C15.4484 15.1999 16.2625 14.8624 16.8624 14.2624C17.4623 13.6624 17.7999 12.8483 17.7999 12V11.4C17.7999 10.7375 17.2624 10.2 16.5999 10.2H14.5999C14.0374 10.2008 13.4851 10.35 12.9999 10.6344L13.0001 9.8ZM11.4001 16H10.2001C9.3165 16 8.6001 15.2836 8.6001 14.4V14.2H9.8001C10.2243 14.2 10.6313 14.3687 10.9313 14.6688C11.2313 14.9688 11.4001 15.3758 11.4001 15.8V16ZM11.4001 10H9.4001C8.5165 10 7.8001 9.2836 7.8001 8.4V8.2H9.8001C10.2243 8.2 10.6313 8.36875 10.9313 8.66876C11.2313 8.96877 11.4001 9.3758 11.4001 9.8V10ZM14.6001 11.8H16.2001V12C16.2001 12.4242 16.0313 12.8312 15.7313 13.1312C15.4313 13.4312 15.0243 13.6 14.6001 13.6H13.0001V13.4C13.0001 12.5164 13.7165 11.8 14.6001 11.8Z" fill="#4CAF50"/>
</svg>
