<svg width="24" height="24" viewBox="0 0 24 24" fill="none" xmlns="http://www.w3.org/2000/svg">
<circle cx="12" cy="12" r="12" fill="white"/>
<path d="M9.5 8H10.25V8.5H9.5V8Z" fill="#4CAF50"/>
<path d="M7.25 8H8V8.5H7.25V8Z" fill="#4CAF50"/>
<path d="M15.75 9.5V6.5H14.25V9.5H15.75ZM15.25 8C15.25 8.13812 15.1381 8.25 15 8.25C14.8619 8.25 14.75 8.13812 14.75 8V7.75C14.75 7.61188 14.8619 7.5 15 7.5C15.1381 7.5 15.25 7.61188 15.25 7.75V8Z" fill="#4CAF50"/>
<path d="M9 7.24994C9 7.11181 8.88812 6.99994 8.75 6.99994C8.61188 6.99994 8.5 7.11181 8.5 7.24994V9.49986H9V7.24994Z" fill="#4CAF50"/>
<path d="M14.85 10H13.0599C12.6099 10.2394 9.06422 12.3026 8.52246 18H11.2713C11.6825 13.0426 13.6981 10.8563 14.85 10ZM9.74998 17.5H9.49998C9.36186 17.5 9.24998 17.3881 9.24998 17.25C9.24998 17.1119 9.36186 17 9.49998 17H9.74998C9.88811 17 9.99998 17.1119 9.99998 17.25C9.99998 17.3881 9.88811 17.5 9.74998 17.5ZM11 15H10.75C10.6119 15 10.5 14.8881 10.5 14.75C10.5 14.6119 10.6119 14.5 10.75 14.5H11C11.1381 14.5 11.25 14.6119 11.25 14.75C11.25 14.8881 11.1381 15 11 15ZM12.25 12.2499H12C11.8619 12.2499 11.75 12.138 11.75 11.9999C11.75 11.8618 11.8619 11.7499 12 11.7499H12.25C12.3881 11.7499 12.5 11.8618 12.5 11.9999C12.5 12.138 12.3881 12.2499 12.25 12.2499Z" fill="#4CAF50"/>
<path d="M12.1193 10H10.5355C10.1987 10.105 6.71554 11.3463 5.06738 18H8.02306C8.45994 13.2374 10.8549 10.9088 12.1194 10H12.1193ZM7.49993 16.7501H7.24993C7.1118 16.7501 6.99993 16.6382 6.99993 16.5001C6.99993 16.362 7.1118 16.2501 7.24993 16.2501H7.49993C7.63805 16.2501 7.74993 16.362 7.74993 16.5001C7.74993 16.6382 7.63805 16.7501 7.49993 16.7501ZM7.49993 14.5002H7.24993C7.1118 14.5002 6.99993 14.3883 6.99993 14.2502C6.99993 14.112 7.1118 14.0002 7.24993 14.0002H7.49993C7.63805 14.0002 7.74993 14.112 7.74993 14.2502C7.74993 14.3883 7.63805 14.5002 7.49993 14.5002ZM8.99993 12.7501H8.74993C8.6118 12.7501 8.49993 12.6382 8.49993 12.5001C8.49993 12.362 8.6118 12.2501 8.74993 12.2501H8.99993C9.13805 12.2501 9.24993 12.362 9.24993 12.5001C9.24993 12.6382 9.13805 12.7501 8.99993 12.7501Z" fill="#4CAF50"/>
<path d="M9.37312 10H5V16.4125C6.27626 12.4581 8.18752 10.7269 9.37312 10ZM6 12.7501H5.75C5.61188 12.7501 5.5 12.6382 5.5 12.5001C5.5 12.362 5.61188 12.2501 5.75 12.2501H6C6.13812 12.2501 6.25 12.362 6.25 12.5001C6.25 12.6382 6.13812 12.7501 6 12.7501ZM6.75 11.2501H6.5C6.36188 11.2501 6.25 11.1382 6.25 11.0001C6.25 10.862 6.36188 10.7501 6.5 10.7501H6.75C6.88812 10.7501 7 10.862 7 11.0001C7 11.1382 6.88812 11.2501 6.75 11.2501Z" fill="#4CAF50"/>
<path d="M6.75 7.24994C6.75 7.11181 6.63812 6.99994 6.5 6.99994C6.36188 6.99994 6.25 7.11181 6.25 7.24994V9.49986H6.75V7.24994Z" fill="#4CAF50"/>
<path d="M11.25 7.24994C11.25 7.11181 11.1381 6.99994 11 6.99994C10.8619 6.99994 10.75 7.11181 10.75 7.24994V9.49986H11.25V7.24994Z" fill="#4CAF50"/>
<path d="M5 8H5.75V8.5H5V8Z" fill="#4CAF50"/>
<path d="M15.2608 18H19.0001V10H18.0814C17.7089 10.2888 15.5364 12.2174 15.2607 18H15.2608ZM16.7502 16.2499H16.5002C16.362 16.2499 16.2502 16.138 16.2502 15.9999C16.2502 15.8618 16.362 15.7499 16.5002 15.7499H16.7502C16.8883 15.7499 17.0002 15.8618 17.0002 15.9999C17.0002 16.138 16.8883 16.2499 16.7502 16.2499ZM17.2502 13.7499H17.0002C16.862 13.7499 16.7502 13.638 16.7502 13.4999C16.7502 13.3618 16.862 13.2499 17.0002 13.2499H17.2502C17.3883 13.2499 17.5002 13.3618 17.5002 13.4999C17.5002 13.638 17.3883 13.7499 17.2502 13.7499ZM18.2502 17.5H18.0002C17.862 17.5 17.7502 17.3881 17.7502 17.25C17.7502 17.1119 17.862 17 18.0002 17H18.2502C18.3883 17 18.5002 17.1119 18.5002 17.25C18.5002 17.3881 18.3883 17.5 18.2502 17.5ZM18.2502 15.2501H18.0002C17.862 15.2501 17.7502 15.1382 17.7502 15.0001C17.7502 14.862 17.862 14.7501 18.0002 14.7501H18.2502C18.3883 14.7501 18.5002 14.862 18.5002 15.0001C18.5002 15.1382 18.3883 15.2501 18.2502 15.2501ZM18.5002 12.2501C18.5002 12.3163 18.4739 12.3801 18.427 12.427C18.3802 12.4738 18.3164 12.5001 18.2501 12.5001H18.0001C17.862 12.5001 17.7501 12.3882 17.7501 12.2501C17.7501 12.112 17.862 12.0001 18.0001 12.0001H18.2501C18.3164 12.0001 18.3801 12.0263 18.427 12.0732C18.4739 12.1201 18.5002 12.1838 18.5002 12.2501V12.2501Z" fill="#4CAF50"/>
<path d="M17.1669 4H14.8331L13 5.37501V9.49997H13.75V6.25005C13.75 6.11192 13.8619 6.00005 14 6.00005H18C18.0662 6.00005 18.13 6.0263 18.1769 6.07317C18.2238 6.12005 18.25 6.1838 18.25 6.25005V9.49997H19V5.37501L17.1669 4Z" fill="#4CAF50"/>
<path d="M15.8036 10C15.413 10.1869 12.2935 11.8669 11.7705 18H14.7617C14.9892 13.1163 16.5135 10.8682 17.3398 10H15.8036ZM12.9999 17H12.7499C12.6118 17 12.4999 16.8881 12.4999 16.75C12.4999 16.6119 12.6118 16.5 12.7499 16.5H12.9999C13.1381 16.5 13.2499 16.6119 13.2499 16.75C13.2499 16.8881 13.1381 17 12.9999 17ZM13.4999 13.5C13.4999 13.3619 13.6118 13.25 13.7499 13.25H13.9999C14.1381 13.25 14.2499 13.3619 14.2499 13.5C14.2499 13.6381 14.1381 13.75 13.9999 13.75H13.7499C13.6118 13.75 13.4999 13.6381 13.4999 13.5ZM14.2499 15.2501H13.9999C13.8618 15.2501 13.7499 15.1382 13.7499 15.0001C13.7499 14.862 13.8618 14.7501 13.9999 14.7501H14.2499C14.3881 14.7501 14.4999 14.862 14.4999 15.0001C14.4999 15.1382 14.3881 15.2501 14.2499 15.2501ZM15.4999 11.5H15.2499C15.1118 11.5 14.9999 11.3881 14.9999 11.25C14.9999 11.1119 15.1118 11 15.2499 11H15.4999C15.6381 11 15.7499 11.1119 15.7499 11.25C15.7499 11.3881 15.6381 11.5 15.4999 11.5Z" fill="#4CAF50"/>
<path d="M17.75 6.5H16.25V9.5H17.75V6.5ZM17.25 8C17.25 8.13812 17.1381 8.25 17 8.25C16.8619 8.25 16.75 8.13812 16.75 8V7.75C16.75 7.61188 16.8619 7.5 17 7.5C17.1381 7.5 17.25 7.61188 17.25 7.75V8Z" fill="#4CAF50"/>
<path d="M11.75 8H12.5V8.5H11.75V8Z" fill="#4CAF50"/>
</svg>
