<svg width="24" height="24" viewBox="0 0 24 24" fill="none" xmlns="http://www.w3.org/2000/svg">
<circle cx="12" cy="12" r="12" fill="white"/>
<path d="M17.625 16.375H6.375L7 15.8063C8.29532 14.6563 9.9508 13.9938 11.6812 13.9313C11.6781 13.9149 11.6781 13.8977 11.6812 13.8813V10.1251H10.125C8.7445 10.1251 7.62496 9.00553 7.62496 7.62507H9.49996C10.7695 7.61569 11.8446 8.55867 12 9.81887H12.0625C12.2148 8.58215 13.2546 7.64707 14.5001 7.62507H16.3751C16.3751 8.28835 16.1118 8.92429 15.643 9.39303C15.1743 9.86177 14.5383 10.1251 13.8751 10.1251H12.3126V13.8751C12.3157 13.8915 12.3157 13.9087 12.3126 13.9251C14.043 13.9876 15.6986 14.6501 16.9938 15.8001L17.625 16.375Z" fill="#695A56"/>
</svg>
