<svg width="40" height="40" viewBox="0 0 40 40" fill="none" xmlns="http://www.w3.org/2000/svg">
<circle opacity="0.1" cx="20" cy="20" r="20" fill="#D8A300"/>
<path d="M27.1743 16.0381H13.4243C13.0791 16.0381 12.7993 16.3179 12.7993 16.6631V26.6631C12.7993 27.0083 13.0791 27.2881 13.4243 27.2881H27.1743C27.5195 27.2881 27.7993 27.0083 27.7993 26.6631V16.6631C27.7993 16.3179 27.5195 16.0381 27.1743 16.0381Z" stroke="#D8A300" stroke-width="2.5" stroke-linecap="round" stroke-linejoin="round"/>
<path d="M17.1743 18.5381V16.0381C17.1743 15.2093 17.5036 14.4144 18.0896 13.8284C18.6757 13.2423 19.4705 12.9131 20.2993 12.9131C21.1281 12.9131 21.923 13.2423 22.509 13.8284C23.0951 14.4144 23.4243 15.2093 23.4243 16.0381V18.5381" stroke="#D8A300" stroke-width="2.5" stroke-linecap="round" stroke-linejoin="round"/>
</svg>
