<svg xmlns="http://www.w3.org/2000/svg" viewBox="0 0 74.11 74.11"><defs><style>.cls-1{fill:#4daf4f;}.cls-2{fill:#398f43;}.cls-3{fill:#fff;}</style></defs><g id="Layer_2" data-name="Layer 2"><g id="Dark_Background" data-name="Dark Background"><path id="path40" class="cls-1" d="M37.06,0H74.11V37.06a37.05,37.05,0,0,1-37,37.05H0v-37A37.06,37.06,0,0,1,37.06,0Z"/><path id="path1655" class="cls-2" d="M37.06,0H74.11L0,74.11v-37A37.06,37.06,0,0,1,37.06,0Z"/><circle class="cls-2" cx="37.06" cy="37.06" r="25.38"/><path class="cls-3" d="M37.06,11.68A25.38,25.38,0,1,0,62.44,37.06,25.38,25.38,0,0,0,37.06,11.68Zm0,33.65a8.25,8.25,0,0,0,7.16-4.14l8.5,4.91a18.11,18.11,0,1,1,0-18.09l-8.5,4.91a8.27,8.27,0,1,0-7.16,12.41Z"/></g></g></svg>