<svg width="60" height="12" viewBox="0 0 60 12" fill="none" xmlns="http://www.w3.org/2000/svg">
<path d="M2.68 11H0.104V0.151999H6.776V2.2H2.68V4.632H6.456V6.664H2.68V11ZM16.2811 9.32V10.984C15.7905 11.1227 15.3318 11.192 14.9051 11.192C14.1478 11.192 13.6091 11.0747 13.2891 10.84C12.9691 10.5947 12.7985 10.184 12.7771 9.608C12.2971 10.664 11.4651 11.192 10.2811 11.192C9.96113 11.192 9.65179 11.1493 9.35313 11.064C9.05446 10.9893 8.75579 10.8613 8.45713 10.68C8.15846 10.4987 7.91846 10.232 7.73713 9.88C7.56646 9.51733 7.48112 9.09067 7.48112 8.6C7.48112 8.16267 7.55579 7.784 7.70513 7.464C7.86513 7.144 8.06246 6.89333 8.29713 6.712C8.53179 6.53067 8.84113 6.38133 9.22513 6.264C9.60913 6.14667 9.97713 6.072 10.3291 6.04C10.6811 5.99733 11.1078 5.96533 11.6091 5.944L12.6651 5.896V5.336C12.6651 4.55733 12.2705 4.168 11.4811 4.168C10.7025 4.168 10.2865 4.54133 10.2331 5.288L7.76913 5.112C7.81179 4.62133 7.95579 4.2 8.20113 3.848C8.45713 3.48533 8.77179 3.21333 9.14513 3.032C9.52913 2.84 9.91313 2.70133 10.2971 2.616C10.6811 2.53067 11.0758 2.488 11.4811 2.488C12.7931 2.488 13.7425 2.728 14.3291 3.208C14.9158 3.688 15.2091 4.39733 15.2091 5.336V8.232C15.2091 8.66933 15.2465 8.96267 15.3211 9.112C15.4065 9.25067 15.5825 9.32 15.8491 9.32H16.2811ZM12.6651 7.48V7.32L11.5771 7.368C11.0865 7.38933 10.7025 7.47467 10.4251 7.624C10.1585 7.77333 10.0251 8.03467 10.0251 8.408C10.0251 8.664 10.0998 8.86667 10.2491 9.016C10.3985 9.16533 10.5425 9.256 10.6811 9.288C10.8198 9.32 10.9691 9.336 11.1291 9.336C11.5665 9.336 11.9291 9.18133 12.2171 8.872C12.5158 8.552 12.6651 8.088 12.6651 7.48ZM19.9575 11H17.4295V2.664H19.8615V4.312C20.3522 3.096 21.0935 2.488 22.0855 2.488C22.3735 2.488 22.5922 2.51467 22.7415 2.568V4.728H21.7815C20.5655 4.728 19.9575 5.43733 19.9575 6.856V11ZM36.6038 11H34.0758V6.2C34.0758 5.09067 33.7078 4.536 32.9718 4.536C32.5131 4.536 32.1504 4.744 31.8837 5.16C31.6171 5.56533 31.4838 6.14133 31.4838 6.888V11H28.9558V6.2C28.9558 5.09067 28.5878 4.536 27.8518 4.536C27.3931 4.536 27.0304 4.744 26.7638 5.16C26.4971 5.56533 26.3638 6.14133 26.3638 6.888V11H23.8358V2.664H26.2678V4.328C26.8011 3.10133 27.6704 2.488 28.8758 2.488C29.4731 2.488 30.0011 2.64267 30.4598 2.952C30.9291 3.25067 31.2384 3.704 31.3878 4.312C31.9104 3.096 32.7798 2.488 33.9958 2.488C34.7318 2.488 35.3504 2.712 35.8518 3.16C36.3531 3.59733 36.6038 4.25333 36.6038 5.128V11Z" fill="black"/>
<path d="M41.2269 11H38.6509V0.151999H45.3229V2.2H41.2269V4.632H45.0029V6.664H41.2269V11ZM49.6644 11H47.0884V0.151999H49.6644V11ZM56.7496 11H54.1736V2.216H51.0376V0.151999H59.8856V2.216H56.7496V11Z" fill="#F79023"/>
</svg>
