<svg width="77" height="13" viewBox="0 0 77 13" fill="none" xmlns="http://www.w3.org/2000/svg">
<path d="M2.68 12V7.664H6.456V5.632H2.68V3.2H6.776V1.152H0.104V12H2.68ZM16.2811 10.32H15.8491C15.2891 10.32 15.2091 10.08 15.2091 9.232V6.336C15.2091 4.512 14.1691 3.488 11.4811 3.488C10.0091 3.488 7.94513 4.064 7.76913 6.112L10.2331 6.288C10.2971 5.376 10.9691 5.168 11.4811 5.168C12.4411 5.168 12.6651 5.696 12.6651 6.336V6.896L11.6091 6.944C9.41713 7.024 7.48112 7.344 7.48112 9.6C7.48112 11.664 9.12913 12.192 10.2811 12.192C11.1771 12.192 12.2171 11.84 12.7771 10.608C12.8091 11.76 13.3851 12.192 14.9051 12.192C15.2091 12.192 15.7691 12.128 16.2811 11.984V10.32ZM12.6651 8.48C12.6651 9.76 11.9291 10.336 11.1291 10.336C10.7931 10.336 10.0251 10.24 10.0251 9.408C10.0251 8.592 10.7131 8.4 11.5771 8.368L12.6651 8.32V8.48ZM19.9575 12V7.856C19.9575 6.368 20.6775 5.728 21.7815 5.728H22.7415V3.568C22.5655 3.504 22.2775 3.488 22.0855 3.488C21.1735 3.488 20.3895 4 19.8615 5.312V3.664H17.4295V12H19.9575ZM36.6038 12V6.128C36.6038 4.256 35.3398 3.488 33.9958 3.488C32.8278 3.488 31.9318 4.048 31.3878 5.312C31.0677 4.032 29.9958 3.488 28.8758 3.488C27.7238 3.488 26.8278 4.048 26.2678 5.328V3.664H23.8358V12H26.3638V7.888C26.3638 6.368 26.9557 5.536 27.8518 5.536C28.5878 5.536 28.9558 6.128 28.9558 7.2V12H31.4838V7.888C31.4838 6.368 32.0758 5.536 32.9718 5.536C33.7078 5.536 34.0758 6.128 34.0758 7.2V12H36.6038Z" fill="black"/>
<path d="M43.2909 12C45.9469 12 47.2909 10.592 47.2909 8.864C47.2909 7.632 46.4909 6.576 44.8749 6.304C46.4269 5.968 46.9709 4.896 46.9709 3.824C46.9709 2.016 45.5309 1.152 42.7789 1.152H38.6509V12H43.2909ZM41.2269 10.224V7.264H42.4269C43.6429 7.264 44.6669 7.648 44.6669 8.672C44.6669 9.712 43.9629 10.224 42.7629 10.224H41.2269ZM41.2269 5.584V2.864H42.3629C43.3869 2.864 44.4109 3.056 44.4109 4.192C44.4109 5.264 43.5789 5.584 42.4269 5.584H41.2269ZM52.6423 12.192C55.2023 12.192 56.7863 10.576 56.7863 7.84C56.7863 5.088 55.2023 3.488 52.6423 3.488C50.0823 3.488 48.4823 5.088 48.4823 7.84C48.4823 10.576 50.0823 12.192 52.6423 12.192ZM52.6423 10.32C51.5863 10.32 51.0583 9.44 51.0583 7.84C51.0583 6.24 51.5863 5.328 52.6423 5.328C53.6983 5.328 54.2103 6.24 54.2103 7.84C54.2103 9.44 53.6983 10.32 52.6423 10.32ZM62.0954 12.192C64.6554 12.192 66.2394 10.576 66.2394 7.84C66.2394 5.088 64.6554 3.488 62.0954 3.488C59.5354 3.488 57.9354 5.088 57.9354 7.84C57.9354 10.576 59.5354 12.192 62.0954 12.192ZM62.0954 10.32C61.0394 10.32 60.5114 9.44 60.5114 7.84C60.5114 6.24 61.0394 5.328 62.0954 5.328C63.1514 5.328 63.6634 6.24 63.6634 7.84C63.6634 9.44 63.1514 10.32 62.0954 10.32ZM76.2845 12L73.1485 6.56L76.1725 3.664H73.1325L70.3325 6.416V0.48H67.8045V12H70.3325V9.296L71.3885 8.288L73.5165 12H76.2845Z" fill="#F79023"/>
</svg>
