<svg width="69" height="13" viewBox="0 0 69 13" fill="none" xmlns="http://www.w3.org/2000/svg">
<path d="M2.68 12H0.104V1.152H6.776V3.2H2.68V5.632H6.456V7.664H2.68V12ZM16.2811 10.32V11.984C15.7905 12.1227 15.3318 12.192 14.9051 12.192C14.1478 12.192 13.6091 12.0747 13.2891 11.84C12.9691 11.5947 12.7985 11.184 12.7771 10.608C12.2971 11.664 11.4651 12.192 10.2811 12.192C9.96113 12.192 9.65179 12.1493 9.35313 12.064C9.05446 11.9893 8.75579 11.8613 8.45713 11.68C8.15846 11.4987 7.91846 11.232 7.73713 10.88C7.56646 10.5173 7.48112 10.0907 7.48112 9.6C7.48112 9.16267 7.55579 8.784 7.70513 8.464C7.86513 8.144 8.06246 7.89333 8.29713 7.712C8.53179 7.53067 8.84113 7.38133 9.22513 7.264C9.60913 7.14667 9.97713 7.072 10.3291 7.04C10.6811 6.99733 11.1078 6.96533 11.6091 6.944L12.6651 6.896V6.336C12.6651 5.55733 12.2705 5.168 11.4811 5.168C10.7025 5.168 10.2865 5.54133 10.2331 6.288L7.76913 6.112C7.81179 5.62133 7.95579 5.2 8.20113 4.848C8.45713 4.48533 8.77179 4.21333 9.14513 4.032C9.52913 3.84 9.91313 3.70133 10.2971 3.616C10.6811 3.53067 11.0758 3.488 11.4811 3.488C12.7931 3.488 13.7425 3.728 14.3291 4.208C14.9158 4.688 15.2091 5.39733 15.2091 6.336V9.232C15.2091 9.66933 15.2465 9.96267 15.3211 10.112C15.4065 10.2507 15.5825 10.32 15.8491 10.32H16.2811ZM12.6651 8.48V8.32L11.5771 8.368C11.0865 8.38933 10.7025 8.47467 10.4251 8.624C10.1585 8.77333 10.0251 9.03467 10.0251 9.408C10.0251 9.664 10.0998 9.86667 10.2491 10.016C10.3985 10.1653 10.5425 10.256 10.6811 10.288C10.8198 10.32 10.9691 10.336 11.1291 10.336C11.5665 10.336 11.9291 10.1813 12.2171 9.872C12.5158 9.552 12.6651 9.088 12.6651 8.48ZM19.9575 12H17.4295V3.664H19.8615V5.312C20.3522 4.096 21.0935 3.488 22.0855 3.488C22.3735 3.488 22.5922 3.51467 22.7415 3.568V5.728H21.7815C20.5655 5.728 19.9575 6.43733 19.9575 7.856V12ZM36.6038 12H34.0758V7.2C34.0758 6.09067 33.7078 5.536 32.9718 5.536C32.5131 5.536 32.1504 5.744 31.8837 6.16C31.6171 6.56533 31.4838 7.14133 31.4838 7.888V12H28.9558V7.2C28.9558 6.09067 28.5878 5.536 27.8518 5.536C27.3931 5.536 27.0304 5.744 26.7638 6.16C26.4971 6.56533 26.3638 7.14133 26.3638 7.888V12H23.8358V3.664H26.2678V5.328C26.8011 4.10133 27.6704 3.488 28.8758 3.488C29.4731 3.488 30.0011 3.64267 30.4598 3.952C30.9291 4.25067 31.2384 4.704 31.3878 5.312C31.9104 4.096 32.7798 3.488 33.9958 3.488C34.7318 3.488 35.3504 3.712 35.8518 4.16C36.3531 4.59733 36.6038 5.25333 36.6038 6.128V12Z" fill="black"/>
<path d="M45.6909 8.368H48.3469C48.0802 9.57333 47.5309 10.5173 46.6989 11.2C45.8669 11.872 44.8269 12.208 43.5789 12.208C41.9362 12.208 40.6349 11.7067 39.6749 10.704C38.7255 9.70133 38.2509 8.32533 38.2509 6.576C38.2509 4.848 38.7309 3.48267 39.6909 2.48C40.6509 1.46667 41.9469 0.959999 43.5789 0.959999C44.8482 0.959999 45.9042 1.30667 46.7469 2C47.5895 2.68267 48.1335 3.63733 48.3789 4.864H45.7389C45.4082 3.65867 44.6882 3.056 43.5789 3.056C42.7042 3.056 42.0322 3.36533 41.5629 3.984C41.0935 4.60267 40.8589 5.46667 40.8589 6.576C40.8589 7.68533 41.0935 8.544 41.5629 9.152C42.0322 9.76 42.7042 10.064 43.5789 10.064C44.6669 10.064 45.3709 9.49867 45.6909 8.368ZM58.6011 4.576H56.0251C55.9291 3.43467 55.2678 2.864 54.0411 2.864C53.5825 2.864 53.1931 2.95467 52.8731 3.136C52.5531 3.30667 52.3931 3.568 52.3931 3.92C52.3931 4.21867 52.5051 4.46933 52.7291 4.672C52.9638 4.87467 53.2678 5.03467 53.6411 5.152C54.0145 5.26933 54.4251 5.38133 54.8731 5.488C55.3211 5.59467 55.7638 5.72267 56.2011 5.872C56.6491 6.02133 57.0598 6.208 57.4331 6.432C57.8065 6.656 58.1051 6.97067 58.3291 7.376C58.5638 7.77067 58.6811 8.24 58.6811 8.784C58.6811 9.79733 58.2865 10.624 57.4971 11.264C56.7185 11.8933 55.5665 12.208 54.0411 12.208C53.7211 12.208 53.3958 12.1867 53.0651 12.144C52.7451 12.1013 52.3611 12 51.9131 11.84C51.4758 11.68 51.0865 11.472 50.7451 11.216C50.4145 10.9493 50.1211 10.5707 49.8651 10.08C49.6198 9.58933 49.4811 9.01867 49.4491 8.368H51.9931C52.0251 9.04 52.2598 9.52533 52.6971 9.824C53.1451 10.112 53.6838 10.256 54.3131 10.256C54.8038 10.256 55.2145 10.1653 55.5451 9.984C55.8758 9.792 56.0411 9.52 56.0411 9.168C56.0411 8.85867 55.9238 8.60267 55.6891 8.4C55.4651 8.19733 55.1665 8.04267 54.7931 7.936C54.4198 7.81867 54.0091 7.712 53.5611 7.616C53.1238 7.50933 52.6811 7.376 52.2331 7.216C51.7851 7.056 51.3745 6.864 51.0011 6.64C50.6278 6.416 50.3238 6.09067 50.0891 5.664C49.8651 5.23733 49.7531 4.73067 49.7531 4.144C49.7531 3.07733 50.1905 2.28267 51.0651 1.76C51.9398 1.22667 53.0331 0.959999 54.3451 0.959999C54.7611 0.959999 55.1771 1.01333 55.5931 1.12C56.0198 1.216 56.4625 1.38667 56.9211 1.632C57.3905 1.86667 57.7798 2.24 58.0891 2.752C58.3985 3.25333 58.5691 3.86133 58.6011 4.576ZM62.9144 12H60.3384V1.152H64.4344C65.7784 1.152 66.8344 1.45067 67.6024 2.048C68.3704 2.64533 68.7544 3.53067 68.7544 4.704C68.7544 5.856 68.365 6.752 67.5864 7.392C66.8077 8.02133 65.7624 8.336 64.4504 8.336H62.9144V12ZM62.9144 6.304H64.2424C64.8397 6.304 65.3037 6.17067 65.6344 5.904C65.9757 5.63733 66.1464 5.23733 66.1464 4.704C66.1464 4.14933 65.9704 3.75467 65.6184 3.52C65.2664 3.28533 64.749 3.168 64.0664 3.168H62.9144V6.304Z" fill="#F79023"/>
</svg>
