<svg version="1.2" xmlns="http://www.w3.org/2000/svg" viewBox="0 0 265 129" width="265" height="129">
	<title>CARBON MINT SVG logo 2-svg</title>
	<style>
		.s0 { fill: #4daf4f } 
		.s1 { fill: #398f43 } 
		.s2 { fill: #febf10 } 
		.s3 { fill: #3d3f3f } 
	</style>
	<g id="Layer">
		<g id="Layer">
			<g id="Layer">
				<g id="Layer">
					<path id="Layer" class="s0" d="m169.9 0.9c0 0 0 26.8 0 37.1 0 20.5-16.6 37.1-37.1 37.1-11.1 0-37.1 0-37.1 0l19.1-19.1c4.5 4.6 10.9 7.4 17.9 7.4 14 0 25.4-11.4 25.4-25.4 0-7-2.8-13.3-7.4-17.9z"/>
					<path id="Layer" class="s1" d="m114.7 56l-19.1 19.1c0 0 0-27.6 0-37.1 0-20.5 16.6-37.1 37.1-37.1 10.2 0 37.1 0 37.1 0l-19.1 19.1c-4.5-4.6-10.9-7.4-17.9-7.4-14 0-25.4 11.4-25.4 25.4 0 7 2.8 13.4 7.3 18z"/>
					<path id="Layer" class="s1" d="m139.8 42.1l8.5 4.9c-3.2 5.5-9 9.1-15.7 9.1-5 0-9.5-2-12.8-5.3-3.3-3.3-5.3-7.8-5.3-12.8 0-10 8.1-18.1 18.1-18.1 5 0 9.5 2 12.8 5.3 1.1 1.1 2.1 2.3 2.9 3.7l-8.5 4.9c-0.3-0.6-0.8-1.2-1.3-1.7-1.5-1.5-3.5-2.4-5.8-2.4-4.6 0-8.3 3.7-8.3 8.3 0 2.3 0.9 4.4 2.4 5.9 1.5 1.5 3.6 2.4 5.9 2.4 3.1 0 5.8-1.7 7.1-4.2z"/>
				</g>
				<g id="Layer">
					<g id="Mint_1_">
						<path id="Layer" class="s2" d="m182.2 104.5c-1.3-1.5-3.2-2.3-5.8-2.3-2.7 0-4.7 0.8-5.9 2.3-1.2 1.5-1.8 3.3-1.8 5.5v18.4h-3.7v-17.7c0-3.8 1-6.6 3-8.5 2-1.9 4.8-2.8 8.4-2.8 4.5 0 7.7 1.5 9.6 4.4 1.7-2.9 4.8-4.4 9.5-4.4 3.5 0 6.3 0.9 8.3 2.8 2 1.9 3 4.7 3 8.5v17.7h-2.3c-0.8 0-1.3-0.5-1.3-1.4v-16.9c0-2.2-0.6-4-1.9-5.6-1.3-1.5-3.2-2.3-5.9-2.3-2.7 0-4.6 0.8-5.9 2.3-1.3 1.5-1.9 3.3-1.9 5.5v18.4h-3.5v-18.3c0-2.2-0.6-4-1.9-5.6z"/>
						<path id="Layer" class="s2" d="m216.7 95.3h-3.6v-3.5h2.3c0.8 0 1.3 0.4 1.3 1.3zm-3.6 33.1v-28.5h2.3c0.8 0 1.3 0.5 1.3 1.4v27.1z"/>
						<path id="Layer" class="s2" d="m244.3 110.2c0-5.3-2.8-8-8.5-8-5.7 0-8.6 2.7-8.6 8v18.2h-3.6v-17.7c0-3.6 1-6.4 2.9-8.4 1.9-1.9 5-2.9 9.3-2.9 8.1 0 12.1 3.7 12.1 11.2v17.7h-2.2c-0.9 0-1.4-0.5-1.4-1.4z"/>
						<path id="Layer" class="s2" d="m257.2 91.8c0.8 0 1.3 0.4 1.3 1.3v6.8h5.9c0 1.9-0.9 2.8-2.7 2.8h-3.2v22c0 0.7 0.4 1.1 1.2 1.1h4.8v2.4c-1.1 0.1-2.1 0.2-3 0.2h-2.9c-1 0-1.8-0.2-2.5-0.7-0.7-0.5-1.1-1.3-1.1-2.4v-33.4h2.2z"/>
					</g>
					<g id="Carbon_1_">
						<path id="Layer" class="s3" d="m14.8 129c-8.6 0-13-5-13.2-14.7 0-9.7 4.4-14.6 13.1-14.8 6.9 0 11 3.1 12.2 9.3h-7.8c-0.9-1.9-2.4-3-4.6-3-3.8 0-5.6 2.9-5.6 8.5 0 5.6 2 8.5 6 8.4 1.7 0 3.1-0.7 4.3-2 0.7-0.7 1.5-1 2.4-1h5.4c-1.4 5.8-5.6 9.5-12.2 9.3z"/>
						<path id="Layer" fill-rule="evenodd" class="s3" d="m38.1 107.3h-7.2c0.9-5.3 4.6-7.9 11.1-7.9 7.9 0 11.8 2.6 12 7.9v9.7c0 7.9-4.7 11.4-12.4 11.9-6.8 0.5-11.6-2.6-11.6-8.9 0.2-6.8 5.1-8.7 12.3-9.4 3.1-0.4 4.6-1.3 4.6-2.9-0.2-1.6-1.7-2.4-4.6-2.4-2.5 0-3.9 0.7-4.2 2zm9 9.4v-2.6c-1.7 0.7-3.6 1.3-5.7 1.7-2.9 0.5-4.3 1.9-4.3 4 0.2 2.3 1.3 3.3 3.6 3.3 4 0 6.4-2.4 6.4-6.4z"/>
						<path id="Layer" class="s3" d="m57.5 113.7c0.2-9.2 5.1-13.8 14.6-13.8h1v7.4h-2.4c-4 0-6 2.1-6 6.2v14.8h-7.3v-14.6z"/>
						<path id="Layer" fill-rule="evenodd" class="s3" d="m83.6 103.9q0.1-0.2 0.2-0.3v0.3zm8.1-4.4c7.6 0.3 11.4 5.2 11.4 14.9q0 14.2-13.2 14.4c-8.9 0.1-13.3-4.2-13.3-12.8v-24.3h3.6q3.6 0 3.6 3.6v8.3c1.8-2.8 4.4-4.1 7.9-4.1zm-8.1 14.6q-0.2 8.7 6 8.7c4.1 0 6.1-2.9 6.1-8.7-0.2-5.5-2.2-8.2-6-8.2-3.9 0-5.9 2.7-6.1 8.2z"/>
						<path id="Layer" fill-rule="evenodd" class="s3" d="m131.9 114.3c0 9.8-4.4 14.7-13 14.7-8.6 0-12.9-5-12.9-14.7 0-9.9 4.3-14.8 12.9-14.8 8.7 0 13 4.9 13 14.8zm-18.6 0c0.1 5.5 1.9 8.3 5.6 8.3 3.7 0 5.5-2.9 5.5-8.6 0-5.5-1.8-8.3-5.5-8.3-3.7 0.1-5.6 2.9-5.6 8.6z"/>
						<path id="Layer" class="s3" d="m156 128.4c-2.4-0.2-3.6-1.3-3.6-3.6v-14.6c-0.2-3-1.8-4.4-5-4.4-3.2 0-4.8 1.5-4.8 4.4v18.2h-7.3v-16.7c0-8.1 4.1-12.2 12.2-12.2 8.1 0 12.1 4 12.1 12.2v16.7z"/>
					</g>
				</g>
			</g>
		</g>
	</g>
</svg>