<svg width="48" height="48" viewBox="0 0 48 48" fill="none" xmlns="http://www.w3.org/2000/svg" xml:space="preserve" preserveAspectRatio="xMidYMid meet">
  <rect opacity="0.11" width="48" height="48" rx="8" fill="#2B9348" />
  <g transform="translate(11 10)">
    <path d="M24 0.25H2C1.53587 0.25 1.09075 0.434375 0.762563 0.762563C0.434375 1.09075 0.25 1.53587 0.25 2V20C0.25 20.4641 0.434375 20.9092 0.762563 21.2374C1.09075 21.5656 1.53587 21.75 2 21.75H24C24.4641 21.75 24.9092 21.5656 25.2374 21.2374C25.5656 20.9092 25.75 20.4641 25.75 20V2C25.75 1.53587 25.5656 1.09075 25.2374 0.762563C24.9092 0.434375 24.4641 0.25 24 0.25ZM2 1.75H24C24.0663 1.75 24.1299 1.77634 24.1768 1.82322C24.2237 1.87011 24.25 1.9337 24.25 2V4.25H1.75V2C1.75 1.9337 1.77634 1.87011 1.82322 1.82322C1.87011 1.77634 1.9337 1.75 2 1.75ZM24 20.25H2C1.9337 20.25 1.87011 20.2237 1.82322 20.1768C1.77634 20.1299 1.75 20.0663 1.75 20V5.75H24.25V20C24.25 20.0663 24.2237 20.1299 24.1768 20.1768C24.1299 20.2237 24.0663 20.25 24 20.25ZM18.75 9C18.75 10.525 18.1442 11.9875 17.0659 13.0659C15.9875 14.1442 14.525 14.75 13 14.75C11.475 14.75 10.0125 14.1442 8.93414 13.0659C7.8558 11.9875 7.25 10.525 7.25 9C7.25 8.80109 7.32902 8.61032 7.46967 8.46967C7.61032 8.32902 7.80109 8.25 8 8.25C8.19891 8.25 8.38968 8.32902 8.53033 8.46967C8.67098 8.61032 8.75 8.80109 8.75 9C8.75 10.1272 9.19777 11.2082 9.9948 12.0052C10.7918 12.8022 11.8728 13.25 13 13.25C14.1272 13.25 15.2082 12.8022 16.0052 12.0052C16.8022 11.2082 17.25 10.1272 17.25 9C17.25 8.80109 17.329 8.61032 17.4697 8.46967C17.6103 8.32902 17.8011 8.25 18 8.25C18.1989 8.25 18.3897 8.32902 18.5303 8.46967C18.671 8.61032 18.75 8.80109 18.75 9Z" 
    stroke="#2B9348" stroke-width="1.75"/>
  </g>
</svg>